<svg width="200" height="36" viewBox="0 0 200 36" fill="none" xmlns="http://www.w3.org/2000/svg">
<g clip-path="url(#clip0_452_303)">
<path d="M23.3 35H0.5V13.8H11.1V26.3H23.3C29.2 26.3 33.4 23 33.4 18.2C33.4 13.4 29 9.9 23.3 9.9H0.5L7.2 1H23.3C35.2 1 43.8 7.9 43.8 17.7C43.8 27.5 35.1 35.1 23.3 35.1V35Z" fill="white"/>
<path d="M93.4002 20.2C93.4002 30.5 86.3002 35.6 72.2002 35.6C58.1002 35.6 48.7002 30.5 48.7002 20.2V1H59.2002V20.2C59.2002 25.2 61.3002 26.9 72.2002 26.9C83.1002 26.9 82.8002 25 82.8002 20.2V1H93.4002V20.2Z" fill="white"/>
<path d="M109.8 35L116.2 26.2H124.8C126.8 26.2 129.2 26.2 130.9 26.3C130 25.1 128.6 23 127.4 21.4L121.3 12.4L105.3 35H92.7998L114.6 4.19999C116 2.19999 118.1 0.399994 121.4 0.399994C124.7 0.399994 126.6 2.09999 128.1 4.19999L149.4 35H109.8Z" fill="white"/>
<path d="M199.5 26.3L183.2 35.1H153.1V1H163.6V26.3H199.4H199.5Z" fill="white"/>
</g>
<defs>
<clipPath id="clip0_452_303">
<rect width="200" height="36" fill="white"/>
</clipPath>
</defs>
</svg>
