<svg width="200" height="70" viewBox="0 0 200 70" fill="none" xmlns="http://www.w3.org/2000/svg">
<g clip-path="url(#clip0_446_254)">
<path d="M198 42.9C196.6 42 196 40.7 196 38.7V35.9C196 33.7 195.1 33 190 30.6C192.1 27.4 193.2 23.5 193.2 19.2V15.7H186.9L186 19.5C185.5 20.4 185 21.2 184.4 22V15.8C184.5 15.7 184.9 15.4 185.8 15L187.8 14.1V8.19999H167.6V14.2L169.9 15C170.4 15.2 170.7 15.3 170.8 15.4V24C169.3 23.5 168.1 22.3 167 20.3L164.6 15.8L161.4 19.8C158.7 23.2 157.1 24.1 156.5 24.4C155.8 24.5 155.1 24.6 154.4 24.8L150.8 23.5C149.6 22.6 149.1 22 149 21.8V18.6H143.1L142.2 20.7C142 21.1 141.9 21.4 141.6 21.6V21.4C141.6 16 140.6 12.1 138.6 9.59999C136.8 6.79999 133.9 4.79999 129.9 3.59999H129.7L100.4 0.399994V6.39999L102.2 7.39999C107.7 10.4 110.8 13.4 110.8 15.9V41.7C110.8 41.8 110.4 42.2 109.2 42.6L107 43.4V49.3H129.7L130.4 51.2C133.7 58.1 134.6 59.4 135.2 60.1C138 63 140.8 64.9 143.5 65.9C145.2 66.6 147.2 67.2 149.4 67.7C151.6 68.2 154.2 68.6 157 68.8L160.7 69.2V62.7L156.7 61.6C152.4 59.9 149.4 57.8 147.2 55.1L148.2 53.4C148.9 52.1 150.1 50.5 151.4 50.5H153.4L155.2 48.7C157.6 48.7 159.3 50 160.7 52.6L161.7 54.3H165.7L166.7 52.8C167.4 51.7 168.1 50.8 168.8 50.1L169.8 49.1H199.4V43.6L197.9 42.6L198 42.9Z" fill="white"/>
<path d="M131 51.1C134.1 57.6 135.1 59.1 135.7 59.7C138.4 62.5 141.1 64.4 143.7 65.3C145.3 66 147.3 66.6 149.5 67C151.7 67.5 154.2 67.8 157 68.1L159.8 68.4V63.5L156.3 62.5C151.1 60.5 147.4 57.8 145.2 54.4H146.6L147.3 53.1C148.5 50.9 149.9 49.8 151.2 49.8H152.9L154.6 48.1H154.8C157.6 48.1 159.7 49.5 161.3 52.4L162 53.7H165L165.7 52.5C166.9 50.6 168.2 49.3 169.4 48.6H170C170 48.5 198.4 48.5 198.4 48.5V44.3L197.2 43.6C195.6 42.5 194.8 41 194.8 38.7V35.9C194.8 34.2 194.3 33.7 188.4 30.9C190.8 27.6 192 23.7 192 19.1V16.4H187.2L186.4 19.7C185.6 21.3 184.5 22.7 183.1 23.9V15.5C183.1 15.3 183.6 14.8 185 14.1L186.5 13.4V9H168V13.6L169.7 14.2C170.9 14.6 171.2 15 171.2 15V25L170.2 24.8C168.5 24.2 167 22.9 165.8 20.7L164 17.3L161.6 20.3C158.9 23.8 157.1 24.8 156.2 25.2C155.4 25.3 154.5 25.5 153.9 25.7L149.9 24.3C147.9 22.8 147.7 22 147.7 22V19.5H143.2L142.5 21.1C142.2 21.9 141.7 22.7 140.4 23V21.6C140.2 16.4 139.3 12.6 137.5 10.2C135.8 7.6 133 5.7 129.3 4.6H129.1L100.9 1.5V6.1L102.2 6.8C108.1 10 111.2 13.2 111.2 16V41.8C111.2 42.6 109.8 43.2 109 43.5L107.3 44.1V48.6H129.7L130.6 51L131 51.1Z" fill="#231815"/>
<path d="M128.9 7.1C132.1 8.1 134.4 9.6 135.8 11.8C137.4 13.8 138.1 17.1 138.1 21.9L138.3 24.2L132.5 27C132.7 28.1 135.9 37.1 142.1 54C144.4 58.8 148.8 62.4 155.5 64.9L157.2 65.4V65.6C154.5 65.3 152 65 150 64.5C147.9 64 146.1 63.5 144.6 62.9C142.3 62.1 139.9 60.4 137.5 57.9C136.9 57.3 135.5 54.6 133.2 49.8C132.9 49.4 132 47.7 130.5 44.6C128.9 41.5 126.7 37.1 123.8 31.4L122.9 31.8V40.9C122.9 43 124 44.6 126.3 45.7V46.2H110.2V46C112.7 45.1 114 43.7 114 41.9V16.1C114 12.2 110.6 8.4 103.7 4.7V4.5L128.9 7.2V7.1ZM120.2 11.4C122 12 123 13.4 123 15.7V20.7C123.1 20.7 123.1 25.9 123.1 25.9L130 21.7C130 16.8 129.1 13.9 127.3 13C125.7 11.9 123.9 11.3 121.9 11.3H120.2V11.4Z" fill="white"/>
<path d="M145.501 22.2C145.501 23.5 146.701 25 149.101 26.7L152.501 27.9V34.8C152.501 35.6 153.101 36.5 154.201 37.4C152.901 37.9 152.201 38.5 152.201 39.2V47.1L152.001 47.3H151.401C149.001 47.3 147.001 48.8 145.301 51.8H145.201C145.201 50.6 144.301 49 142.401 47.1C142.001 46.8 141.501 46.4 140.901 46.1C140.301 45.8 139.501 45.4 138.601 45.1V37.5C138.601 36.8 138.101 35.9 137.101 34.8V34.6C137.901 34.6 138.501 33.9 138.701 32.4V26L138.901 25.8H139.101C142.201 25.8 144.201 24.6 145.201 22.1H145.401L145.501 22.2ZM144.301 44.2C144.301 45.3 144.801 45.8 145.701 45.8C146.601 45.8 146.701 45.3 146.701 44.3V28.8C146.501 28.4 146.201 28.2 145.801 28.2H145.601C144.801 28.2 144.401 28.5 144.401 29.2V44.2H144.301Z" fill="white"/>
<path d="M164 22.1C165.6 25 167.6 26.8 170 27.5L172.2 27.9L170.2 34.8H170C169.2 33.3 168.4 32.6 167.5 32.6L163.9 31.2C162.8 30.2 162.2 29.5 162.2 29.1H162.1V44.2H162.2C162.2 43.4 163.3 42.5 165.4 41.5C166.7 41.5 168.7 40.4 171.4 38.3L172.3 37.4H172.2V45.5H172.1C172.1 45.6 171.5 45.6 171.5 45.6C168.8 45.6 166.3 47.4 163.9 51.1H163.8C161.7 47.4 158.8 45.5 155.1 45.5H154.9L154.7 45.3V28.5C154.7 28.4 155.6 28.2 157.4 27.9C159.3 27.3 161.6 25.4 164.2 22.1H164Z" fill="white"/>
<path d="M184.3 11.8V12C182 13 180.9 14.2 180.9 15.7V28.6H181C184.8 26.8 187.5 24.2 189.1 20.7L189.5 19.1H189.7C189.7 24.4 188 28.5 184.5 31.8C189.8 34.4 192.5 35.7 192.5 36V38.8C192.5 41.9 193.7 44.3 196.1 45.8V46H184.8L184.6 45.8C185.7 44.7 186.3 43 186.3 40.8V37.6L181 34.3V42.8C180.9 43.6 181.5 44.6 182.7 46C182.7 46.1 168 46.1 168 46.1V45.9C172.1 44.3 174.1 42.2 174.1 39.5V15.2C174.1 13.8 173 12.7 170.9 12V11.8H184.3Z" fill="white"/>
<path d="M146.6 36V44.3C146.6 45.3 146.3 45.8 145.6 45.8C144.9 45.8 144.2 45.3 144.2 44.2V37L138.4 39.4V45.4C139.3 45.7 140.1 46.1 140.7 46.4C141.3 46.7 141.8 47.1 142.2 47.4C144.1 49.3 145 50.8 145 52.1H145.1C146.8 49.1 148.9 47.6 151.2 47.6H151.8L152 47.4V39.5C152 38.7 152.7 38.1 154 37.7C152.9 36.8 152.3 35.9 152.3 35.1V33.8L146.4 36.2L146.6 36Z" fill="#C8C9CA"/>
<path d="M172.2 37.5V37.6L172.3 37.5H172.2Z" fill="#C8C9CA"/>
<path d="M154.5 42.7V45.3L154.7 45.5H154.9C158.6 45.5 161.6 47.4 163.6 51.1H163.7C166.1 47.4 168.6 45.6 171.3 45.6H172V37.5L171.3 38.2C168.6 40.3 166.6 41.4 165.3 41.4C163.2 42.4 162.1 43.3 162.1 44.1H162V39.5L154.4 42.6L154.5 42.7Z" fill="#C8C9CA"/>
<path d="M184.6 31.8L174.1 36.1V39.4C174.1 42.1 172.1 44.2 168 45.8V46H182.7C181.5 44.5 180.9 43.4 180.9 42.7V40.4C181 40.4 181 34.3 181 34.3L186.3 37.6V40.8C186.3 43.1 185.7 44.8 184.6 45.8L184.8 46H196.1V45.8C193.7 44.3 192.5 41.9 192.5 38.8V36C192.5 35.8 189.8 34.4 184.5 31.9C184.5 31.8 184.5 31.8 184.5 31.8H184.6Z" fill="#C8C9CA"/>
<path d="M114.101 41.9C114.101 43.7 112.801 45 110.301 46V46.2H126.401V45.7C124.101 44.6 123.001 43 123.001 40.9V31.8L123.901 31.4C126.801 37.2 129.001 41.6 130.601 44.6C132.201 47.7 133.101 49.4 133.301 49.8C135.601 54.6 137.001 57.3 137.601 57.9C140.001 60.4 142.401 62.1 144.701 62.9C146.201 63.5 148.001 64.1 150.101 64.5C152.201 65 154.601 65.3 157.301 65.6V65.4L155.601 64.9C148.901 62.4 144.501 58.7 142.201 54C136.401 38.2 133.301 29.3 132.701 27.3L114.101 34.6V41.8V41.9Z" fill="#C8C9CA"/>
<path d="M89 52.4H89.6V51.7L90.6 50.3C90.7 50.4 90.8 50.6 90.9 50.7L91.9 52.1H97.3V49.5C97.9 48.6 98.7 47.9 99.8 47.4C103.8 47.2 104.5 45 104.5 43.7L104.1 33.4V22.1H101.9L99 21.9C97 21.5 96.7 21 96.6 21.1V17.7H90.4L89.5 20.9C89 21.5 88.5 21.9 88.1 22.1C85.3 22.4 82.2 22.8 82.2 26V26.8C82.2 26.8 82.2 26.8 82.1 26.8C81.6 26.4 81.1 26 74.2 23.7C70 22.3 63.8 20.2 55.8 17.6H55.5C55.5 17.5 47.3 17.4 47.3 17.4L48.8 19.1L48.6 18.9H47.5C46.5 18.9 45 19.3 44 21.3C43.6 21.7 42.8 22.3 41.2 23.4C40.2 24.1 39 25 37.5 26V22.3H35.7V15.1C35.7 15 35.7 14.9 35.7 14.9C35.7 14.7 35.7 14.5 35.7 14.5C36 13.6 36.2 13 36.4 12.7H38.9V5.69999H26.6C26.2 5.69999 25.2 4.89999 24 2.79999L23 1.09999H18.5L17.7 3.29999C17 5.09999 16.1 5.79999 14.2 5.79999H5.8L3.6 7.99999V17.3L3.5 19.6C3.3 21.8 2.9 22.6 2.7 22.9L0.5 23.6V28.1L1.9 29.1C3.2 30 3.8 32.3 3.8 35.7V51.1L7.4 54.7L9.8 52.2C11.8 50 15 48.9 19.3 48.9C18.3 53 16.7 56.6 14.6 59.6L14 60.5V65.1H18.6L19.5 64.5C26.5 59.6 31.2 54.4 33.6 49L41.5 49.7V53.3L58.3 50.8V49.5H64.6C65.9 51 68.8 51.7 75.9 52.6L79.7 53V51.7C81.2 52 83.2 52.3 85.8 52.6H88.9H89.1L89 52.4Z" fill="white"/>
<path d="M103.3 34.3V32.8C103.2 32.8 103.2 23 103.2 23H101.4L98.7998 22.8C96.7998 22.4 95.6998 21.8 95.6998 21.1V18.6H90.9998L90.2998 21.3C89.5998 22.1 88.9998 22.7 88.2998 22.9C85.4998 23.2 83.0998 23.5 83.0998 26V28.8C82.6998 28.3 82.1998 27.9 81.5998 27.4C81.1998 27.1 80.6998 26.7 73.8998 24.4C69.5998 23 63.4998 20.9 55.4998 18.3H55.1998C55.1998 18.2 48.9998 18.2 48.9998 18.2L52.4998 22.4C52.6998 22.6 52.8998 22.9 52.9998 23.3L48.0998 19.8H47.2998C46.0998 19.8 45.0998 20.5 44.4998 21.9C44.0998 22.2 43.2998 22.9 41.4998 24.2C39.7998 25.4 37.3998 27.1 34.4998 29.1C34.5998 28.7 34.8998 28.4 35.2998 28.2L36.4998 27.5V23.3H34.6998V15.3C34.6998 15.1 34.6998 15 34.6998 14.9C34.6998 14.7 34.6998 14.5 34.7998 14.4C35.1998 13 35.5998 12.3 35.7998 12H37.9998V6.69998H26.4998C25.5998 6.69998 24.3998 5.49998 23.1998 3.29998L22.4998 1.99998H19.0998L18.4998 3.69998C17.6998 5.79998 16.3998 6.69998 14.1998 6.69998H6.0998L4.3998 8.39998V17.4L4.2998 19.7C3.9998 22.7 3.2998 23.6 3.0998 23.6L1.2998 24.2V27.7L2.2998 28.5C3.7998 29.6 4.5998 32.1 4.5998 35.8V50.8L7.2998 53.5L9.0998 51.6C11.3998 49.2 14.7998 48 19.4998 48H20.2998C19.2998 52.7 17.5998 56.7 15.1998 60.1L14.6998 60.8V64.3H18.1998L18.8998 63.8C25.9998 58.8 30.6998 53.5 32.9998 48.1L42.2998 48.9V52.3L57.3998 50.1V48.7H64.8998C65.8998 50.2 68.5998 50.9 75.8998 51.8L78.6998 52.1V50.7C80.2998 51.1 82.4998 51.4 85.7998 51.8H88.6998V48.1L87.9998 47.4C87.7998 47.2 87.5998 46.9 87.3998 46.7C88.1998 47 88.8998 47.5 89.6998 48.3V50.5L90.5998 49.3C90.8998 49.7 91.2998 50.1 91.5998 50.6L92.3998 51.7H96.4998V49.7C97.2998 48.5 98.2998 47.6 99.5998 47C102.3 47 103.6 45.9 103.6 44.2L103.3 34.7V34.3ZM34.3998 40.6V34.7H34.5998V42.6C34.5998 42.9 34.5998 42.9 34.2998 43H34.1998C34.2998 42.2 34.3998 41.4 34.3998 40.5V40.6Z" fill="#231815"/>
<path d="M22.3004 22.4H31.9004L32.1004 22.2V15.2C32.1004 14.9 32.1004 14.6 32.1004 14.3C32.1004 14 32.2004 13.8 32.3004 13.6C32.7004 12.2 33.2004 11.1 33.7004 10.5C34.2004 9.79999 34.8004 9.49999 35.4004 9.49999V9.29999H26.4004C24.4004 9.29999 22.6004 7.69999 20.9004 4.59999H20.8004C19.7004 7.69999 17.4004 9.29999 14.2004 9.29999H7.20039L7.00039 9.49999V19.9C6.50039 23.5 5.60039 25.5 3.90039 26V26.4C6.10039 28 7.20039 31.2 7.20039 35.7V49.7H7.30039C10.1004 46.9 14.2004 45.4 19.6004 45.4H23.3004C23.3004 45.5 23.1004 47 23.1004 47C22.1004 52.7 20.2004 57.5 17.3004 61.5C17.3004 61.6 17.4004 61.6 17.4004 61.6C27.1004 54.8 31.9004 47.8 31.9004 40.6V29.7C31.9004 28.1 32.6004 26.9 34.0004 26V25.8H19.9004V26C21.3004 26.5 22.0004 27.9 22.0004 30.1V39.2C22.0004 40.6 21.4004 41.3 20.3004 41.3H19.9004C18.6004 41.3 17.9004 39.2 17.7004 35V18C17.9004 14.2 18.8004 12.3 20.2004 12.3H20.7004C21.7004 12.3 22.2004 13.2 22.2004 15.1V22.1L22.4004 22.3L22.3004 22.4Z" fill="white"/>
<path d="M51.9004 44.5V30.7C51.9004 28.7 52.5004 27.3 53.6004 26.6L47.3004 22.2C47.1004 22.2 46.9004 22.6 46.6004 23.3C46.1004 23.8 44.9004 24.7 43.0004 26.1C41.1004 27.5 38.4004 29.4 34.9004 31.8V32.2H35.1004C36.4004 32.2 37.1004 32.6 37.1004 33.1V42.7C37.1004 44 36.5004 44.9 35.4004 45.4V45.6L43.9004 46.3C43.1004 45.4 42.7004 44.4 42.7004 43V38.3L46.6004 39.4V45.4C46.6004 46.8 46.0004 47.9 44.8004 48.8V49L54.9004 47.5V47.3C52.9004 46.6 52.0004 45.6 52.0004 44.4L51.9004 44.5ZM46.5004 37.3C44.0004 36.6 42.7004 36.2 42.7004 35.9V31.6L46.5004 28.8V37.3Z" fill="white"/>
<path d="M82.7 34.5C82.7 32.6 81.8 30.9 80 29.5C79.6 29.2 77.3 28.3 73 26.9C68.8 25.5 62.6 23.4 54.7 20.8H54.5C55.7 22.2 56.3 24.3 56.3 26.9V41.2C55.6 44.2 54.8 45.7 54 45.7V45.9H64.4V45.2C63.3 44.1 62.8 42.9 62.8 41.5V26.6C63.2 26.3 63.5 26.1 63.8 26H63.9C65 26 65.7 26.7 65.9 28.2V40.9C65.9 43.8 66.3 45.7 67 46.8C67 47.6 70.1 48.3 76.2 49C73.9 46.7 72.8 42.6 72.8 36.6V31.9C72.8 30.8 73.1 30.2 73.8 30.2H74.3C75.4 30.5 75.9 31.3 75.9 32.8V41.8C75.9 43.9 76.2 45.5 76.9 46.7C76.9 47.6 80 48.3 86.1 49H86.2C83.9 46.5 82.8 42.8 82.8 37.8V34.5H82.7Z" fill="white"/>
<path d="M101 36.8C99.2 38.5 97.6 39.6 96.3 40C94.8 40 93.4 40.9 92.1 42.6V39.3C92.5 39 93.4 38.5 94.8 37.8C96.2 37 98.2 36 100.7 34.8V33C100.6 33 100.6 30.8 100.6 30.8V25.6H100.2C100.2 25.5 98.4 25.4 98.4 25.4C94.9 24.8 93.1 23.4 93.1 21.2H92.9L92.5 22.6C91.4 24.2 90.1 25.2 88.7 25.5C86.6 25.7 85.5 26 85.5 26.1V43.4H85.6C88.4 43.5 91 45.3 93.6 48.8H93.8C94.9 46.5 96.6 45 99 44.1C100.3 44.1 101 44 101 43.7V36.8ZM91.8 26.5H91.9C92.9 28 94 28.7 95.1 28.7H95.5V32.8C95.2 33.1 94.7 33.4 94.1 33.7C93.5 34 92.7 34.4 91.8 34.9V26.5Z" fill="white"/>
<path d="M21.9002 30.8V39.1C21.9002 40.5 21.3002 41.2 20.2002 41.2H19.8002C18.5002 41.2 17.8002 39.1 17.6002 34.9V32.5L7.2002 36.8V49.6H7.3002C10.1002 46.8 14.2002 45.3 19.6002 45.3H23.3002C23.3002 45.4 23.1002 46.9 23.1002 46.9C22.1002 52.6 20.2002 57.4 17.3002 61.4C17.3002 61.5 17.4002 61.5 17.4002 61.5C27.1002 54.7 31.9002 47.7 31.9002 40.5V29.6C31.9002 28 32.6002 26.8 34.0002 25.9C34.0002 25.8 22.0002 30.7 22.0002 30.7L21.9002 30.8Z" fill="#C8C9CA"/>
<path d="M85.5 37.9V43.3H85.6C88.4 43.4 91 45.2 93.6 48.7H93.8C94.9 46.4 96.6 44.9 99 44C100.3 44 101 43.9 101 43.6V36.7C99.2 38.4 97.6 39.5 96.3 39.9C94.8 39.9 93.4 40.8 92.1 42.5V39.2C92.5 38.9 93.4 38.4 94.8 37.7C96.2 36.9 98.2 35.9 100.7 34.7V32.9C100.6 32.9 100.6 31.7 100.6 31.7L85.5 37.9Z" fill="#C8C9CA"/>
<path d="M46.5 36V37.3C45.8 37.1 45.2 36.9 44.7 36.8L37.2 39.9V42.7C37.2 44 36.6 44.9 35.5 45.4V45.6L44 46.3C43.2 45.4 42.8 44.4 42.8 43V38.3L46.7 39.4V45.4C46.7 46.8 46.1 47.9 44.9 48.8V49L55 47.5V47.3C53 46.6 52.1 45.6 52.1 44.4V33.7L46.7 35.9L46.5 36Z" fill="#C8C9CA"/>
<path d="M76.2004 49C73.9004 46.7 72.8004 42.6 72.8004 36.6V35.4L65.9004 37.3V40.8C65.9004 43.7 66.3004 45.6 67.0004 46.7C67.0004 47.5 70.1004 48.2 76.2004 48.9V49Z" fill="#C8C9CA"/>
<path d="M75.7998 41.7C75.7998 43.8 76.0998 45.4 76.7998 46.6C76.7998 47.5 79.8998 48.2 85.9998 48.9H86.0998C83.7998 46.4 82.6998 42.7 82.6998 37.7V34.4C82.6998 33.8 82.5998 33.2 82.3998 32.6L75.7998 34.5V41.7Z" fill="#C8C9CA"/>
<path d="M64.4 45.2C63.3 44.1 62.8 42.9 62.8 41.5V38.2L56.4 40V41.1C55.6 44.1 54.8 45.6 54 45.6V45.8H64.4V45.1V45.2Z" fill="#C8C9CA"/>
<path d="M172.8 31.3L166.5 32.2L162.3 27.5L161.2 33.7L155.4 36.3L160.9 39.3L161.6 45.6L166.2 41.2L172.4 42.5L169.6 36.8L172.8 31.3Z" fill="#231815"/>
<path d="M163.4 31.5L165.8 34.1L169.3 33.7L167.6 36.7L169.1 39.9L165.6 39.2L163 41.6L162.7 38.1L159.6 36.4L162.8 35L163.4 31.5Z" fill="#C8C9CA"/>
</g>
<defs>
<clipPath id="clip0_446_254">
<rect width="200" height="70" fill="white"/>
</clipPath>
</defs>
</svg>
