<svg width="200" height="46" viewBox="0 0 200 46" fill="none" xmlns="http://www.w3.org/2000/svg">
<g clip-path="url(#clip0_452_339)">
<path d="M0.5 45.7001V0.300049C3.9 0.300049 6.7 3.10005 6.7 6.50005V39.5C6.7 42.9001 3.9 45.7001 0.5 45.7001Z" fill="white"/>
<path d="M79.2002 45.7001V0.300049C82.6002 0.300049 85.4002 3.10005 85.4002 6.50005V39.5C85.4002 42.9001 82.6002 45.7001 79.2002 45.7001Z" fill="white"/>
<path d="M127.5 45.7001V0.300049C130.9 0.300049 133.7 3.10005 133.7 6.50005V39.5C133.7 42.9001 130.9 45.7001 127.5 45.7001Z" fill="white"/>
<path d="M15.6 0.300049C16.9 0.300049 18.1 1.00005 18.7 2.10005L33.5 27.5C34.5 29.3 37.3 28.6 37.3 26.5V0.300049H43.4V42.1C43.4 44.1 41.8 45.7001 39.8 45.7001C38.5 45.7001 37.3 45 36.7 43.9001L21.9 18.5C20.9 16.7001 18.1 17.5 18.1 19.5V45.6H12V3.90005C12 1.90005 13.6 0.300049 15.6 0.300049Z" fill="white"/>
<path d="M94.3002 0.300049C95.6002 0.300049 96.8002 1.00005 97.4002 2.10005L112.2 27.5C113.2 29.3 116 28.6 116 26.5V0.300049H122.1V42.1C122.1 44.1 120.5 45.7001 118.5 45.7001C117.2 45.7001 116 45 115.4 43.9001L100.6 18.5C99.6002 16.7001 96.8002 17.5 96.8002 19.5V45.6H90.7002V3.90005C90.7002 1.90005 92.3002 0.300049 94.3002 0.300049Z" fill="white"/>
<path d="M54.7996 0.300049H73.7996V5.60005H60.9996C57.5996 5.60005 54.7996 8.40005 54.7996 11.8V14.3C54.7996 17.7 57.5996 20.5 60.9996 20.5H71.7996V25.8H60.9996C57.5996 25.8 54.7996 28.6 54.7996 32V45.7001H48.5996V6.50005C48.5996 3.10005 51.3996 0.300049 54.7996 0.300049Z" fill="white"/>
<path d="M144.5 5.60005H138.8V0.300049H168.7V5.60005H163C159.6 5.60005 156.8 8.40005 156.8 11.8V45.7001H150.6V11.8C150.6 8.40005 147.8 5.60005 144.4 5.60005H144.5Z" fill="white"/>
<path d="M193.3 0.300049V14.8C193.3 18.7 190.1 21.9 186.2 21.9C182.3 21.9 179.1 18.6 179.1 14.5V0.300049H172.9V14.5C172.9 21.1 177.3 26.5 183.4 27.8V45.7001H189.5V27.7001C195.2 26.2001 199.5 21 199.5 14.9V0.300049H193.3Z" fill="white"/>
</g>
<defs>
<clipPath id="clip0_452_339">
<rect width="200" height="46" fill="white"/>
</clipPath>
</defs>
</svg>
