<svg width="200" height="45" viewBox="0 0 200 45" fill="none" xmlns="http://www.w3.org/2000/svg">
<g clip-path="url(#clip0_452_351)">
<path d="M180.5 25.5L173.8 15.7L199.5 0.699951L180.5 25.5Z" fill="url(#paint0_linear_452_351)"/>
<path d="M199.5 44.4L173.8 29.4V15.7L199.5 44.4Z" fill="url(#paint1_linear_452_351)"/>
<path d="M166.6 18.6L170.8 29.3L145.1 44.3L166.6 18.6Z" fill="url(#paint2_linear_452_351)"/>
<path d="M145.1 0.599976L170.8 15.6V29.3L145.1 0.599976Z" fill="url(#paint3_linear_452_351)"/>
<path d="M6.7 35.1H0.5V9.90002H6.7V19.7H16.3L24.9 9.90002H32.6L23.6 19.9C26.6 20.5 28.9 21.8 30.5 23.9C32.2 26 33 28.7 33 32.2V35.1H26.8V32C26.8 27.5 24.6 25.3 20.2 25.3H6.7V35.1Z" fill="#0068B6"/>
<path d="M37.0996 9.90002H57.2996C59.2996 9.90002 61.0996 10.2 62.6996 10.8C64.2996 11.4 65.5996 12.2 66.6996 13.3C67.7996 14.4 68.5996 15.7 69.1996 17.2C69.7996 18.8 69.9996 20.5 69.9996 22.5V35.2H63.7996V25.6H43.2996V35.2H37.0996V9.90002ZM43.1996 19.8H63.2996C63.0996 18.8 62.5996 17.8 61.4996 17C60.4996 16.2 58.0996 15.8 54.1996 15.8H43.0996V19.8H43.1996Z" fill="#0068B6"/>
<path d="M80.8002 9.90002V29.1H103.9V35.1H74.7002V9.90002H80.9002H80.8002Z" fill="#0068B6"/>
<path d="M107.5 9.90002H132.8C134.7 9.90002 136.4 10.2 137.9 10.7C139.5 11.3 140.8 12 141.9 13.1C143 14.1 143.9 15.3 144.5 16.8C145.1 18.2 145.4 19.8 145.4 21.5V35.2H139.2V22.6C139.2 18.2 137 15.9 132.7 15.9H113.5V35.2H107.3V9.90002H107.5ZM122.9 18.9H129.1V35.1H122.9V18.9Z" fill="#0068B6"/>
</g>
<defs>
<linearGradient id="paint0_linear_452_351" x1="177.4" y1="20.5" x2="202.3" y2="5.49995" gradientUnits="userSpaceOnUse">
<stop stop-color="#999999"/>
<stop offset="1" stop-color="#1A1A1A"/>
</linearGradient>
<linearGradient id="paint1_linear_452_351" x1="186.6" y1="44.4" x2="186.6" y2="15.8" gradientUnits="userSpaceOnUse">
<stop stop-color="#999999"/>
<stop offset="1" stop-color="#1A1A1A"/>
</linearGradient>
<linearGradient id="paint2_linear_452_351" x1="168.9" y1="23.9" x2="142.4" y2="39.8" gradientUnits="userSpaceOnUse">
<stop stop-color="#999999"/>
<stop offset="1" stop-color="#1A1A1A"/>
</linearGradient>
<linearGradient id="paint3_linear_452_351" x1="142.3" y1="4.19998" x2="168" y2="20.6" gradientUnits="userSpaceOnUse">
<stop stop-color="#999999"/>
<stop offset="1" stop-color="#1A1A1A"/>
</linearGradient>
<clipPath id="clip0_452_351">
<rect width="200" height="45" fill="white"/>
</clipPath>
</defs>
</svg>
