<svg width="180" height="47" viewBox="0 0 180 47" fill="none" xmlns="http://www.w3.org/2000/svg">
<path fill-rule="evenodd" clip-rule="evenodd" d="M164.423 14.0202H154.675L160.823 37.7064H151.984L148.419 19.2788C147.109 14.0202 144.213 14.0202 144.213 14.0202H138.029V7.36035H164.432V14.0202H164.423Z" fill="white"/>
<path d="M86.0076 14.0202V7.35156H93.9917C96.6026 7.35156 101.156 9.7193 102.511 14.0202C103.856 18.3212 108.73 37.7774 108.73 37.7774H99.8105L97.5472 26.0451C96.6115 26.0097 95.0343 26.0718 94.2858 26.0718C92.9313 26.0718 91.4967 27.6059 91.0511 30.2397C90.5967 32.8734 90.0264 37.6976 90.0264 37.6976H81.668C81.668 37.6976 81.7927 34.5584 82.6482 29.5923C84.2432 20.3076 89.3581 19.1282 91.8977 19.1282H96.2105L96.1125 18.6138C96.1125 18.6138 94.6333 14.0114 92.6373 14.0114H85.9987L86.0076 14.0202Z" fill="white"/>
<path d="M75.0561 7.27173C79.6363 7.27173 81.9888 9.11626 82.5858 11.4485C83.1561 13.6478 83.3076 18.9064 82.5323 21.9659C81.7482 25.0253 79.3155 26.1515 75.0561 26.1515H68.3373V37.7064H59.5244V7.27173H75.0561ZM68.3373 21.9659H70.9482C72.3828 21.9659 73.2294 20.3164 73.4432 19.208C73.666 18.1083 73.8353 15.4036 73.4432 14.1621C73.0601 12.9295 72.3561 11.5283 70.9482 11.5283H68.3284V21.9659H68.3373Z" fill="white"/>
<path d="M108.106 7.27173H116.919V27.7744C117.053 29.6189 117.935 31.0555 119.004 31.0555H127.256V37.7064H114.166C110.824 37.7064 108.115 32.8734 108.115 26.9053V7.27173H108.106Z" fill="white"/>
<path d="M136.88 16.9466V37.6976H128.085V16.9466H136.88ZM128.094 7.27173H136.889V14.0202H128.094V7.27173Z" fill="white"/>
<path fill-rule="evenodd" clip-rule="evenodd" d="M2.0048 9.63955C4.12559 4.91295 8.93747 1.9422 14.9078 1.0022V34.7713C4.03648 28.5194 -1.66649 17.8424 2.0048 9.63955Z" fill="white"/>
<path fill-rule="evenodd" clip-rule="evenodd" d="M14.9082 34.7712C14.9082 34.7712 19.2389 37.2809 22.0815 37.946L14.9706 45.998L14.9082 34.7712Z" fill="white"/>
<path fill-rule="evenodd" clip-rule="evenodd" d="M33.2733 4.7001C46.4168 10.4199 53.5366 21.629 49.4822 30.6743C45.802 38.886 34.0218 41.8124 22.0723 37.946V33.7337C28.9247 35.2324 35.9109 34.3633 39.1366 29.6012C43.8416 22.6576 39.7247 12.6369 29.896 6.18991C27.4099 4.55821 24.1931 2.82897 22.0812 1.49878C22.0812 1.49878 30.0921 3.32557 33.2733 4.70897V4.7001Z" fill="white"/>
<path d="M22.0811 31.4546V2.24365C29.9672 7.49346 37.4702 20.5204 34.3424 26.1427C32.1949 30.0003 27.4989 31.7206 22.0811 31.4635V31.4546Z" fill="#FBC700"/>
<path d="M172.935 10.8633V5.94165H175.136C175.572 5.94165 175.911 5.98599 176.142 6.07467C176.374 6.16335 176.552 6.32297 176.695 6.54467C176.829 6.76637 176.9 7.01467 176.9 7.28958C176.9 7.64429 176.784 7.93693 176.561 8.17637C176.33 8.4158 175.982 8.56656 175.51 8.62863C175.679 8.70844 175.813 8.79712 175.902 8.87693C176.098 9.05429 176.276 9.26712 176.445 9.53316L177.301 10.8722H176.481L175.831 9.85241C175.635 9.55976 175.483 9.3292 175.358 9.17844C175.234 9.02769 175.127 8.91241 175.029 8.85033C174.931 8.78825 174.833 8.74391 174.726 8.71731C174.654 8.70844 174.53 8.69958 174.36 8.69958H173.603V10.8811H172.943L172.935 10.8633ZM173.594 8.11429H175.002C175.305 8.11429 175.537 8.07882 175.706 8.02561C175.875 7.96354 176 7.86599 176.089 7.73297C176.178 7.59995 176.223 7.4492 176.223 7.28958C176.223 7.05901 176.134 6.86391 175.964 6.71316C175.795 6.56241 175.528 6.49146 175.153 6.49146H173.585V8.12316L173.594 8.11429Z" fill="white"/>
<path d="M170.537 8.39804C170.537 10.748 172.462 12.6635 174.823 12.6635C177.185 12.6635 179.109 10.748 179.109 8.39804C179.109 6.04804 177.185 4.13257 174.823 4.13257C172.462 4.13257 170.537 6.04804 170.537 8.39804ZM171.116 8.39804C171.116 6.35842 172.783 4.70898 174.823 4.70898C176.864 4.70898 178.539 6.36729 178.539 8.39804C178.539 10.4288 176.873 12.0871 174.823 12.0871C172.774 12.0871 171.116 10.4288 171.116 8.39804Z" fill="white"/>
</svg>
