<svg width="200" height="51" viewBox="0 0 200 51" fill="none" xmlns="http://www.w3.org/2000/svg">
<g clip-path="url(#clip0_452_287)">
<path d="M24.8 20.7C30.8 20.7 32.5 22.9 32.5 27.4C32.5 31.9 31 33.8 23.5 33.8H0.5L5.4 29.1H24C25.8 29.1 26.6 28.6 26.6 27.3C26.6 26 25.8 25.5 24 25.5H10.6C4.3 25.5 2.9 23.1 2.9 18.9C2.9 14.7 4.4 12.2 11.9 12.2H33.3L28.4 17.2H11.4C9.6 17.2 8.8 17.6 8.8 18.9C8.8 20.2 9.6 20.6 11.4 20.6H24.8V20.7Z" fill="#605F5E"/>
<path d="M56.9 15.7L53.2 20.4H46.7V33.9H41.1V20.4H32.5L36.2 15.7H56.9Z" fill="#605F5E"/>
<path d="M111.4 33.9H103.8L99.7004 29.1H91.0004V33.9H85.4004V24.6H101.3C103 24.6 104.4 23.8 104.4 22.6C104.4 21.4 103.2 20.5 101.3 20.5H85.4004L89.1004 15.8H100.8C104.9 15.8 110.2 17.1 110.2 22.3C110.2 27.5 108.4 27.5 105.4 28.1C106 28.6 106.7 29.2 108 30.5L111.4 34V33.9Z" fill="#605F5E"/>
<path d="M82.6996 24.5C82.6996 31 78.1996 33.9 69.3996 33.9C60.5996 33.9 56.0996 31 56.0996 24.5C56.0996 18 60.4996 15.1 69.3996 15.1C78.2996 15.1 82.6996 18 82.6996 24.5ZM77.0996 24.5C77.0996 20.6 75.0996 19.8 69.3996 19.8C63.6996 19.8 61.6996 20.5 61.6996 24.5C61.6996 28.5 63.6996 29.2 69.3996 29.2C75.0996 29.2 77.0996 28.4 77.0996 24.5Z" fill="#605F5E"/>
<path d="M128 22.1C129.6 24.9 130.3 26.3 130.9 27.6C131.5 26.3 132.2 25 133.8 22.2L136.7 17C137.4 15.8 138.3 15.1 139.8 15.1C141.3 15.1 142.5 15.9 143 17.6L147.6 33.6H142L140.3 27.2C139.7 25.1 139.3 23.7 139 22.2C138.4 23.5 137.7 24.9 136.5 27.2L134 31.8C133 33.6 132.1 33.8 130.8 33.8C129.5 33.8 128.5 33.6 127.6 31.8L125.1 27.2C123.8 24.7 123.1 23.4 122.5 22.2C122.2 23.6 121.8 25.2 121.3 27.2L119.6 33.6H114.1L118.8 17.6C119.3 15.9 120.6 15.1 122 15.1C123.4 15.1 124.4 15.8 125.1 17L128 22.2V22.1Z" fill="#605F5E"/>
<path d="M178.1 28.9L170.6 17.9L199.5 0.899994L178.1 28.9Z" fill="url(#paint0_linear_452_287)"/>
<path d="M199.5 50.1L170.6 33.3V17.9L199.5 50.1Z" fill="url(#paint1_linear_452_287)"/>
<path d="M162.5 21.1L167.2 33.1L138.3 50.1L162.5 21.1Z" fill="url(#paint2_linear_452_287)"/>
<path d="M138.3 0.899994L167.2 17.7V33.1L138.3 0.899994Z" fill="url(#paint3_linear_452_287)"/>
</g>
<defs>
<linearGradient id="paint0_linear_452_287" x1="174.7" y1="23.2" x2="202.7" y2="6.3" gradientUnits="userSpaceOnUse">
<stop stop-color="#009FE8"/>
<stop offset="1" stop-color="#0068B6"/>
</linearGradient>
<linearGradient id="paint1_linear_452_287" x1="185" y1="50.2" x2="185" y2="17.9" gradientUnits="userSpaceOnUse">
<stop stop-color="#009FE8"/>
<stop offset="1" stop-color="#0068B6"/>
</linearGradient>
<linearGradient id="paint2_linear_452_287" x1="165.1" y1="27" x2="135.3" y2="45" gradientUnits="userSpaceOnUse">
<stop stop-color="#009FE8"/>
<stop offset="1" stop-color="#0068B6"/>
</linearGradient>
<linearGradient id="paint3_linear_452_287" x1="135.2" y1="4.99999" x2="164" y2="23.4" gradientUnits="userSpaceOnUse">
<stop stop-color="#009FE8"/>
<stop offset="1" stop-color="#0068B6"/>
</linearGradient>
<clipPath id="clip0_452_287">
<rect width="200" height="51" fill="white"/>
</clipPath>
</defs>
</svg>
